<svg width="237" height="237" viewBox="0 0 237 237" fill="none" xmlns="http://www.w3.org/2000/svg">
<circle cx="118.5" cy="118.5" r="116" stroke="#E67742" stroke-width="5"/>
<path d="M143.068 112.047C144.356 113.333 144.356 115.41 143.068 116.695C142.407 117.354 141.548 117.651 140.723 117.651C139.897 117.651 139.038 117.354 138.377 116.695L132.531 110.861L126.684 116.695C126.023 117.354 125.198 117.651 124.339 117.651C123.48 117.651 122.654 117.354 121.994 116.695C120.705 115.41 120.705 113.333 121.994 112.047L127.873 106.213L121.994 100.346C120.705 99.0601 120.705 96.9835 121.994 95.6979C123.282 94.4124 125.396 94.4124 126.684 95.6979L132.531 101.532L138.377 95.6979C139.666 94.4124 141.747 94.4124 143.068 95.6979C144.356 96.9835 144.356 99.0601 143.068 100.346L137.221 106.213L143.068 112.047Z" fill="#E67742"/>
<path d="M93.2889 139.538H167.115C170.088 139.571 172.598 137.297 173.028 134.165L181.252 80.1066L181.319 79.6121C181.319 76.3488 178.676 73.7118 175.439 73.7118H80.8029L75.1545 54.6923H59.101C57.2512 54.6923 55.7979 56.1427 55.7979 57.9886C55.7979 59.8345 57.2512 61.2848 59.101 61.2848H70.1997L91.5052 133.078C84.4034 133.935 78.8871 140.033 78.8871 147.383C78.8871 154.734 84.2712 160.667 91.307 161.656C89.9857 163.733 89.226 166.205 89.226 168.842C89.226 176.358 95.3699 182.456 102.901 182.456C110.432 182.456 116.543 176.358 116.543 168.842C116.543 166.271 115.817 163.865 114.594 161.821H152.218C150.962 163.865 150.236 166.271 150.236 168.842C150.236 176.358 156.38 182.456 163.911 182.456C171.442 182.456 177.553 176.358 177.553 168.842C177.553 161.327 171.442 155.229 163.911 155.229C163.647 155.229 163.382 155.229 163.151 155.262H163.052C163.052 155.262 162.788 155.229 162.656 155.229H93.355C89.0278 155.229 85.4934 151.702 85.4934 147.383C85.4934 143.065 88.9948 139.538 93.2889 139.538ZM82.7518 80.3043H174.547L166.52 132.979H98.3758L82.7518 80.3043ZM170.947 168.842C170.947 172.699 167.776 175.863 163.911 175.863C160.046 175.863 156.842 172.699 156.842 168.842C156.842 164.986 160.013 161.821 163.911 161.821C167.809 161.821 170.947 164.953 170.947 168.842ZM102.901 161.821C106.766 161.821 109.937 164.953 109.937 168.842C109.937 172.732 106.766 175.863 102.901 175.863C99.0364 175.863 95.8323 172.699 95.8323 168.842C95.8323 164.986 99.0034 161.821 102.901 161.821Z" fill="#E67742"/>
</svg>
