<svg width="133" height="133" viewBox="0 0 133 133" fill="none" xmlns="http://www.w3.org/2000/svg">
<circle cx="66.5" cy="66.5" r="65.5" fill="#292929" stroke="#FFDC73" stroke-width="2"/>
<path d="M63.6934 94.5153C63.5392 94.3923 63.3623 94.301 63.1727 94.2465C62.9831 94.192 62.7846 94.1754 62.5886 94.1977C62.3927 94.22 62.203 94.2807 62.0305 94.3764C61.858 94.4721 61.7061 94.6009 61.5834 94.7553C58.6734 98.3853 56.2934 101.245 54.9634 102.825C52.2734 99.6653 45.2134 91.1353 38.1034 81.5153C30.1034 70.6753 26.9334 62.5153 28.3034 56.5153C29.0834 53.0953 31.3034 50.4253 35.2234 48.3653C43.2234 44.0953 53.9434 52.1653 54.0534 52.2453C54.3171 52.4441 54.6383 52.5516 54.9684 52.5516C55.2986 52.5516 55.6198 52.4441 55.8834 52.2453C55.9834 52.1653 66.6534 44.0853 74.7034 48.3653C79.9934 51.0553 82.2934 55.0153 81.8934 60.3753C81.8643 60.7732 81.9943 61.1663 82.255 61.4682C82.5157 61.7701 82.8856 61.9562 83.2834 61.9853C83.6813 62.0145 84.0744 61.8845 84.3763 61.6238C84.6782 61.3631 84.8643 60.9932 84.8934 60.5953C85.3834 54.0153 82.4334 48.9753 76.1234 45.5953C67.8134 41.2153 57.9934 47.0653 54.9934 49.1253C51.9934 47.0653 42.1534 41.2053 33.8534 45.6253C29.1834 48.0853 26.3434 51.5153 25.3734 55.7553C23.8034 62.6753 27.1734 71.6653 35.6834 83.2553C44.7434 95.5653 53.7434 106.055 53.8334 106.155C53.9742 106.318 54.1485 106.449 54.3443 106.539C54.5402 106.628 54.753 106.675 54.9684 106.675C55.1838 106.675 55.3967 106.628 55.5925 106.539C55.7884 106.449 55.9626 106.318 56.1034 106.155C56.1034 106.155 59.4034 102.315 63.9334 96.6653C64.0614 96.5095 64.1568 96.3296 64.2141 96.1363C64.2714 95.9429 64.2894 95.7401 64.267 95.5397C64.2446 95.3393 64.1824 95.1454 64.0839 94.9695C63.9853 94.7936 63.8526 94.6391 63.6934 94.5153Z" fill="#FFDC73"/>
<path d="M97.993 83.8153C97.9903 82.0666 97.2938 80.3905 96.0564 79.1549C94.8189 77.9193 93.1417 77.2253 91.393 77.2253H83.503V69.3053C83.503 67.5549 82.8076 65.8762 81.5699 64.6384C80.3322 63.4007 78.6534 62.7053 76.903 62.7053C75.1526 62.7053 73.4738 63.4007 72.2361 64.6384C70.9983 65.8762 70.303 67.5549 70.303 69.3053V77.2253H62.393C61.5053 77.1908 60.6198 77.3357 59.7895 77.6516C58.9592 77.9674 58.2012 78.4477 57.5609 79.0635C56.9207 79.6793 56.4113 80.418 56.0634 81.2354C55.7155 82.0528 55.5361 82.932 55.5361 83.8203C55.5361 84.7087 55.7155 85.5879 56.0634 86.4053C56.4113 87.2226 56.9207 87.9614 57.5609 88.5772C58.2012 89.193 58.9592 89.6732 59.7895 89.9891C60.6198 90.3049 61.5053 90.4499 62.393 90.4153H70.303V98.3353C70.303 100.086 70.9983 101.764 72.2361 103.002C73.4738 104.24 75.1526 104.935 76.903 104.935C78.6534 104.935 80.3322 104.24 81.5699 103.002C82.8076 101.764 83.503 100.086 83.503 98.3353V90.4153H91.413C93.1591 90.4074 94.8312 89.7089 96.0641 88.4723C97.2969 87.2357 97.9904 85.5615 97.993 83.8153ZM81.993 87.4153C81.5952 87.4153 81.2136 87.5734 80.9323 87.8547C80.651 88.136 80.493 88.5175 80.493 88.9153V98.3353C80.493 99.2901 80.1137 100.206 79.4386 100.881C78.7634 101.556 77.8478 101.935 76.893 101.935C75.9382 101.935 75.0225 101.556 74.3474 100.881C73.6723 100.206 73.293 99.2901 73.293 98.3353V88.9153C73.293 88.5175 73.135 88.136 72.8536 87.8547C72.5723 87.5734 72.1908 87.4153 71.793 87.4153H62.393C61.9049 87.4411 61.4168 87.3672 60.9582 87.1981C60.4996 87.0291 60.0803 86.7685 59.7257 86.4321C59.3711 86.0958 59.0888 85.6907 58.8958 85.2417C58.7028 84.7927 58.6033 84.3091 58.6033 83.8203C58.6033 83.3316 58.7028 82.848 58.8958 82.399C59.0888 81.9499 59.3711 81.5449 59.7257 81.2085C60.0803 80.8722 60.4996 80.6115 60.9582 80.4425C61.4168 80.2735 61.9049 80.1996 62.393 80.2253H71.803C72.2008 80.2253 72.5823 80.0673 72.8636 79.786C73.145 79.5047 73.303 79.1231 73.303 78.7253V69.3053C73.303 68.3505 73.6823 67.4349 74.3574 66.7597C75.0325 66.0846 75.9482 65.7053 76.903 65.7053C77.8578 65.7053 78.7734 66.0846 79.4486 66.7597C80.1237 67.4349 80.503 68.3505 80.503 69.3053V78.7253C80.503 79.1231 80.661 79.5047 80.9423 79.786C81.2236 80.0673 81.6052 80.2253 82.003 80.2253H91.413C91.901 80.1996 92.3892 80.2735 92.8478 80.4425C93.3064 80.6115 93.7257 80.8722 94.0803 81.2085C94.4348 81.5449 94.7172 81.9499 94.9102 82.399C95.1031 82.848 95.2027 83.3316 95.2027 83.8203C95.2027 84.3091 95.1031 84.7927 94.9102 85.2417C94.7172 85.6907 94.4348 86.0958 94.0803 86.4321C93.7257 86.7685 93.3064 87.0291 92.8478 87.1981C92.3892 87.3672 91.901 87.4411 91.413 87.4153H81.993Z" fill="#FFDC73"/>
<path d="M99.5834 34.4553V31.3053C99.6138 30.6199 99.5051 29.9354 99.2638 29.2932C99.0225 28.651 98.6535 28.0642 98.1793 27.5685C97.705 27.0727 97.1353 26.6781 96.5043 26.4085C95.8734 26.139 95.1945 26 94.5084 26C93.8223 26 93.1433 26.139 92.5124 26.4085C91.8815 26.6781 91.3117 27.0727 90.8375 27.5685C90.3632 28.0642 89.9943 28.651 89.753 29.2932C89.5117 29.9354 89.4029 30.6199 89.4334 31.3053V34.4553H86.2834C84.9764 34.5134 83.7422 35.0734 82.8378 36.0188C81.9335 36.9642 81.4287 38.222 81.4287 39.5303C81.4287 40.8386 81.9335 42.0965 82.8378 43.0419C83.7422 43.9873 84.9764 44.5473 86.2834 44.6053H89.4334V47.7553C89.4029 48.4407 89.5117 49.1252 89.753 49.7675C89.9943 50.4097 90.3632 50.9964 90.8375 51.4922C91.3117 51.988 91.8815 52.3826 92.5124 52.6521C93.1433 52.9217 93.8223 53.0607 94.5084 53.0607C95.1945 53.0607 95.8734 52.9217 96.5043 52.6521C97.1353 52.3826 97.705 51.988 98.1793 51.4922C98.6535 50.9964 99.0225 50.4097 99.2638 49.7675C99.5051 49.1252 99.6138 48.4407 99.5834 47.7553V44.6053H102.743C104.05 44.5473 105.285 43.9873 106.189 43.0419C107.093 42.0965 107.598 40.8386 107.598 39.5303C107.598 38.222 107.093 36.9642 106.189 36.0188C105.285 35.0734 104.05 34.5134 102.743 34.4553H99.5834ZM104.813 39.5153C104.813 40.0643 104.595 40.5908 104.207 40.979C103.819 41.3672 103.292 41.5853 102.743 41.5853H98.0834C97.6855 41.5853 97.304 41.7434 97.0227 42.0247C96.7414 42.306 96.5834 42.6875 96.5834 43.0853V47.7353C96.6031 48.0199 96.5642 48.3056 96.4688 48.5745C96.3735 48.8434 96.2239 49.0898 96.0293 49.2984C95.8346 49.507 95.5992 49.6733 95.3376 49.7871C95.0759 49.9008 94.7937 49.9595 94.5084 49.9595C94.2231 49.9595 93.9408 49.9008 93.6792 49.7871C93.4176 49.6733 93.1821 49.507 92.9875 49.2984C92.7929 49.0898 92.6432 48.8434 92.5479 48.5745C92.4526 48.3056 92.4136 48.0199 92.4334 47.7353V43.1053C92.4334 42.7075 92.2753 42.326 91.994 42.0447C91.7127 41.7634 91.3312 41.6053 90.9334 41.6053H86.2834C85.7579 41.5688 85.2659 41.3344 84.9066 40.9492C84.5473 40.5641 84.3475 40.057 84.3475 39.5303C84.3475 39.0036 84.5473 38.4965 84.9066 38.1114C85.2659 37.7263 85.7579 37.4918 86.2834 37.4553H90.9334C91.3312 37.4553 91.7127 37.2973 91.994 37.016C92.2753 36.7347 92.4334 36.3532 92.4334 35.9553V31.3053C92.4136 31.0207 92.4526 30.7351 92.5479 30.4662C92.6432 30.1973 92.7929 29.9509 92.9875 29.7423C93.1821 29.5337 93.4176 29.3673 93.6792 29.2536C93.9408 29.1399 94.2231 29.0812 94.5084 29.0812C94.7937 29.0812 95.0759 29.1399 95.3376 29.2536C95.5992 29.3673 95.8346 29.5337 96.0293 29.7423C96.2239 29.9509 96.3735 30.1973 96.4688 30.4662C96.5642 30.7351 96.6031 31.0207 96.5834 31.3053V35.9553C96.5834 36.3532 96.7414 36.7347 97.0227 37.016C97.304 37.2973 97.6855 37.4553 98.0834 37.4553H102.743C103.29 37.4579 103.813 37.6755 104.201 38.061C104.588 38.4464 104.808 38.9689 104.813 39.5153Z" fill="#FFDC73"/>
</svg>
