<svg width="133" height="133" viewBox="0 0 133 133" fill="none" xmlns="http://www.w3.org/2000/svg">
<path d="M132 66.5C132 102.675 102.675 132 66.5 132C30.3253 132 1 102.675 1 66.5C1 30.3253 30.3253 1 66.5 1C102.675 1 132 30.3253 132 66.5Z" fill="#292929" stroke="#FFDC73" stroke-width="2"/>
<path d="M35.9833 48.5333C38.1061 48.5333 39.8333 46.8061 39.8333 44.6833V43.1793C39.705 43.1337 39.5795 43.0822 39.4579 43.0238L36.8908 45.5908L35.0758 43.7759L37.6428 41.2089C37.5846 41.0871 37.5329 40.9617 37.4874 40.8333H35.9833C33.8605 40.8333 32.1333 42.5605 32.1333 44.6833C32.1333 46.8061 33.8605 48.5333 35.9833 48.5333Z" fill="#FFDC73"/>
<path d="M35.9833 38.2667H37.4874C37.5329 38.1383 37.5844 38.0129 37.6428 37.8911L35.0758 35.3241L36.8906 33.5092L39.4578 36.0763C39.5795 36.0179 39.705 35.9663 39.8333 35.9207V34.4167C39.8333 32.2939 38.1061 30.5667 35.9833 30.5667C33.8605 30.5667 32.1333 32.2939 32.1333 34.4167C32.1333 36.5395 33.8605 38.2667 35.9833 38.2667Z" fill="#FFDC73"/>
<path d="M41.1168 40.8333C41.8256 40.8333 42.4002 40.2588 42.4002 39.55C42.4002 38.8412 41.8256 38.2667 41.1168 38.2667C40.4081 38.2667 39.8335 38.8412 39.8335 39.55C39.8335 40.2588 40.4081 40.8333 41.1168 40.8333Z" fill="#FFDC73"/>
<path d="M50.0999 44.6833C50.0999 42.5605 48.3727 40.8333 46.2499 40.8333H44.7458C44.7003 40.9617 44.6488 41.0871 44.5904 41.2089L47.1574 43.7759L45.3426 45.5908L42.7754 43.0238C42.6537 43.082 42.5282 43.1337 42.3999 43.1793V44.6833C42.3999 46.8061 44.1271 48.5333 46.2499 48.5333C48.3727 48.5333 50.0999 46.8061 50.0999 44.6833Z" fill="#FFDC73"/>
<path d="M45.3424 33.5092L47.1572 35.3241L44.5902 37.8911C44.6486 38.0129 44.7001 38.1383 44.7457 38.2667H46.2499C48.3727 38.2667 50.0999 36.5395 50.0999 34.4167C50.0999 32.2939 48.3727 30.5667 46.2499 30.5667C44.1271 30.5667 42.3999 32.2939 42.3999 34.4167V35.9207C42.5282 35.9663 42.6537 36.0178 42.7754 36.0762L45.3424 33.5092Z" fill="#FFDC73"/>
<path d="M97.959 32.2259L99.7738 34.0408L90.8286 42.986C97.1256 41.4877 102.018 36.0635 102.604 29.3953C95.9361 29.9812 90.512 34.8739 89.0137 41.171L97.959 32.2259Z" fill="#FFDC73"/>
<path d="M47.0938 65.1803L47.2554 64.2112L46.2863 64.3727C40.7827 65.29 36.5173 69.3209 35.1582 74.4934L40.2092 69.4424L42.024 71.2573L36.9732 76.3082C42.1456 74.9493 46.1766 70.6838 47.0938 65.1803Z" fill="#FFDC73"/>
<path d="M95.1219 60.0256C97.5761 55.7596 98.8667 50.9332 98.8667 45.9667C98.8667 44.6498 98.7229 43.3403 98.4398 42.062C97.707 42.6467 96.933 43.1711 96.1227 43.6316C96.2397 44.4016 96.3 45.1824 96.3 45.9667C96.3 50.6784 95.0231 55.2509 92.6 59.2493C91.3131 58.9558 89.9744 58.8 88.6 58.8C86.2388 58.8 84.0004 59.3348 81.9984 60.2887C80.6489 58.6348 79.0268 57.2504 77.2231 56.1822C77.5893 56.2138 77.9591 56.2333 78.3333 56.2333C83.9944 56.2333 88.6 51.6278 88.6 45.9667C88.6 41.7208 85.1457 38.2667 80.9 38.2667C76.6543 38.2667 73.2 41.7208 73.2 45.9667H75.7667C75.7667 43.1361 78.0694 40.8333 80.9 40.8333C83.7306 40.8333 86.0333 43.1361 86.0333 45.9667C86.0333 50.2126 82.5791 53.6667 78.3333 53.6667C72.6722 53.6667 68.0667 49.0611 68.0667 43.4C68.0667 36.3237 73.8237 30.5667 80.9 30.5667C84.1632 30.5667 87.3444 31.6118 89.9661 33.5217C90.5022 32.8534 91.089 32.2202 91.7231 31.6259C88.6186 29.2825 84.8086 28 80.9 28C72.4083 28 65.5 34.9083 65.5 43.4C65.5 47.742 67.6695 51.5845 70.9794 53.9079C70.0233 53.7499 69.0497 53.6667 68.0667 53.6667C59.575 53.6667 52.6667 60.575 52.6667 69.0667C52.6667 76.143 58.4237 81.9 65.5 81.9C68.855 81.9 71.839 80.2822 73.7135 77.786C74.482 80.4218 76.0739 82.7083 78.1923 84.3489C74.8335 87.7018 70.2831 89.6 65.5 89.6C63.1095 89.6 60.7717 89.1497 58.552 88.262L52.372 85.7899C50.1768 84.9118 47.8651 84.4667 45.5009 84.4667C35.2995 84.4667 27 92.7661 27 102.968V105H29.5667V102.968C29.5667 94.1815 36.7147 87.0333 45.5009 87.0333C47.537 87.0333 49.5281 87.4169 51.4186 88.1729L57.5987 90.645C60.1232 91.6548 62.7814 92.1667 65.5 92.1667C71.1666 92.1667 76.5469 89.8357 80.4208 85.7383C82.1172 86.567 84.0217 87.0333 86.0333 87.0333C91.6944 87.0333 96.3 82.4278 96.3 76.7667C96.3 72.5208 92.8457 69.0667 88.6 69.0667C84.3543 69.0667 80.9 72.5208 80.9 76.7667H83.4667C83.4667 73.9361 85.7694 71.6333 88.6 71.6333C91.4306 71.6333 93.7333 73.9361 93.7333 76.7667C93.7333 81.0126 90.2791 84.4667 86.0333 84.4667C80.3722 84.4667 75.7667 79.8611 75.7667 74.2C75.7667 67.1237 81.5237 61.3667 88.6 61.3667C97.0917 61.3667 104 68.275 104 76.7667C104 90.9194 92.4859 102.433 78.3333 102.433C72.6409 102.433 66.9001 101.172 61.7313 98.7871L56.1803 96.2249C54.0661 95.2491 51.7178 94.7333 49.3892 94.7333C44.5655 94.7333 40.0279 96.8587 36.9397 100.564L34.9976 102.895L36.9693 104.538L38.9116 102.207C41.5105 99.0886 45.3295 97.3 49.3892 97.3C51.349 97.3 53.3253 97.7341 55.1047 98.5553L60.6557 101.117C66.1593 103.657 72.2721 105 78.3333 105C93.9013 105 106.567 92.3346 106.567 76.7667C106.567 69.1592 101.814 62.6417 95.1219 60.0256ZM74.6598 67.6601C73.3099 65.4284 70.8597 63.9333 68.0667 63.9333C63.8209 63.9333 60.3667 67.3874 60.3667 71.6333H62.9333C62.9333 68.8028 65.2361 66.5 68.0667 66.5C70.8972 66.5 73.2 68.8028 73.2 71.6333C73.2 75.8792 69.7457 79.3333 65.5 79.3333C59.8389 79.3333 55.2333 74.7278 55.2333 69.0667C55.2333 61.9904 60.9904 56.2333 68.0667 56.2333C72.5646 56.2333 76.8395 58.2188 79.7514 61.6031C77.5712 63.1391 75.8063 65.2263 74.6598 67.6601Z" fill="#FFDC73"/>
</svg>
