<svg width="133" height="133" viewBox="0 0 133 133" fill="none" xmlns="http://www.w3.org/2000/svg">
<circle cx="66.5" cy="66.5" r="65.5" fill="#292929" stroke="#FFDC73" stroke-width="2"/>
<path d="M98.4805 90.0352C99.0327 90.0352 99.4805 89.5879 99.4805 89.0352V87.9102C99.4805 87.3574 99.0327 86.9102 98.4805 86.9102C97.9282 86.9102 97.4805 87.3574 97.4805 87.9102V89.0352C97.4805 89.5879 97.9282 90.0352 98.4805 90.0352Z" fill="#FFDC73"/>
<path d="M85.7793 101.07C85.7793 101.623 86.2271 102.07 86.7793 102.07H96.5493C98.165 102.07 99.4795 100.756 99.4795 99.1406V94.2852C99.4795 93.7324 99.0317 93.2852 98.4795 93.2852C97.9272 93.2852 97.4795 93.7324 97.4795 94.2852V99.1406C97.4795 99.6533 97.062 100.07 96.5493 100.07H86.7793C86.2271 100.07 85.7793 100.518 85.7793 101.07Z" fill="#FFDC73"/>
<path d="M103.18 50.6499H100.586C100.76 49.5174 100.85 48.3718 100.85 47.23C100.85 34.9722 90.8774 25 78.6196 25C66.3618 25 56.3896 34.9722 56.3896 47.23C56.3896 48.3702 56.4792 49.5156 56.6535 50.6499H51.0171H36.7974H30.6299C28.6284 50.6499 27 52.2783 27 54.2803V61.2402C27 62.7819 27.9756 64.092 29.3398 64.6131V102.5C29.3398 105.021 31.3896 107.07 33.9097 107.07H99.9097C102.43 107.07 104.48 105.021 104.48 102.5V64.6099C105.839 64.0862 106.81 62.7781 106.81 61.2402V54.2803C106.81 52.2783 105.181 50.6499 103.18 50.6499ZM78.6196 27C89.7744 27 98.8496 36.0752 98.8496 47.23C98.8496 48.6406 98.7021 50.0586 98.4111 51.4429C98.29 52.016 98.144 52.582 97.9738 53.1395C96.7827 57.0417 94.4117 60.5241 91.1758 63.0786C87.5854 65.9448 83.2432 67.46 78.6196 67.46C78.0416 67.46 77.468 67.4363 76.8998 67.3893C76.2435 67.335 75.5969 67.2405 74.9562 67.1243C72.2688 66.6372 69.7283 65.6194 67.4431 64.0888C66.9723 63.7733 66.5123 63.4365 66.064 63.0786C66.0635 63.0782 66.0629 63.0781 66.0624 63.0778C66.0615 63.077 66.0605 63.0764 66.0596 63.0757C62.3652 60.1592 59.7974 56.0278 58.8281 51.4429C58.828 51.4424 58.8278 51.442 58.8276 51.4416C58.5371 50.0543 58.3896 48.6376 58.3896 47.23C58.3896 36.0752 67.4648 27 78.6196 27ZM52.0171 52.6499H57.0542C57.1163 52.8979 57.1947 53.1404 57.2653 53.3856C57.3118 53.5469 57.3541 53.7093 57.4042 53.8693C57.5776 54.4233 57.7677 54.9711 57.9837 55.5081C58.0048 55.5608 58.0305 55.6113 58.0521 55.6638C58.2509 56.1473 58.4682 56.6222 58.7004 57.0898C58.7815 57.2531 58.8683 57.4128 58.9533 57.5741C59.1447 57.9366 59.3454 58.2935 59.5565 58.6449C59.654 58.8072 59.7505 58.9695 59.8521 59.1293C60.1046 59.5264 60.3705 59.9144 60.648 60.295C60.7128 60.384 60.7719 60.4765 60.8381 60.5645C61.182 61.0217 61.5458 61.464 61.9249 61.8943C62.0371 62.0217 62.1562 62.1428 62.2714 62.2678C62.4541 62.4659 62.6312 62.6688 62.8213 62.8604H52.0171V52.6499ZM37.7974 52.6499H50.0171V62.8604H37.7974V52.6499ZM48.4224 64.8623V78.2561L47.5806 79.0625L46.4302 77.9609C46.043 77.5898 45.4321 77.5898 45.0459 77.9609L43.9004 79.0605L42.7583 77.9619C42.3706 77.5889 41.7598 77.5898 41.3721 77.9609L40.228 79.0605L39.3921 78.2571V64.8623H48.4224ZM30.6299 62.8604C29.731 62.8604 29 62.1338 29 61.2402V54.2803C29 53.3813 29.731 52.6499 30.6299 52.6499H35.7974V62.8604H30.6299ZM102.48 102.5C102.48 103.917 101.327 105.07 99.9097 105.07H33.9097C32.4927 105.07 31.3398 103.917 31.3398 102.5V64.8604H36.7877C36.7911 64.8604 36.7939 64.8623 36.7974 64.8623H37.3921V78.5771C37.3921 78.598 37.4027 78.6153 37.4039 78.6357C37.3906 78.9139 37.4825 79.1951 37.6992 79.4033L39.5347 81.168C39.9209 81.54 40.5322 81.541 40.9204 81.1689L42.0645 80.0693L43.2061 81.168C43.3999 81.3545 43.6494 81.4473 43.8994 81.4473C44.1489 81.4473 44.3984 81.3545 44.5918 81.1689L45.7388 80.0684L46.8887 81.1689C47.2754 81.54 47.8857 81.54 48.2725 81.1689L50.1143 79.4043C50.3317 79.1962 50.4236 78.9147 50.4105 78.6361C50.4117 78.6155 50.4224 78.5981 50.4224 78.5771V64.8623H51.0171C51.0205 64.8623 51.0233 64.8604 51.0267 64.8604H65.0942C65.3066 65.0246 65.5298 65.1681 65.7467 65.3238C65.9854 65.4951 66.2205 65.6726 66.4644 65.8336C66.7403 66.0156 67.0247 66.1792 67.307 66.348C67.5506 66.4935 67.7905 66.6464 68.0387 66.782C68.3322 66.9423 68.634 67.0829 68.9336 67.2292C69.1813 67.3502 69.4252 67.4795 69.6769 67.5907C69.9886 67.7284 70.3082 67.8451 70.6256 67.9678C70.875 68.0643 71.1206 68.1702 71.3734 68.2574C71.7049 68.3716 72.0439 68.4634 72.3809 68.5616C72.6281 68.6336 72.8716 68.7164 73.1218 68.7797C73.48 68.8704 73.8453 68.9371 74.2089 69.0097C74.4452 69.0569 74.6778 69.1161 74.9161 69.1556C75.3232 69.2231 75.7367 69.2647 76.1494 69.3098C76.3505 69.3317 76.5485 69.3665 76.7509 69.3831C77.3685 69.4336 77.9916 69.46 78.6196 69.46C79.2476 69.46 79.8707 69.4337 80.4882 69.3831C80.6946 69.3662 80.8964 69.3307 81.1014 69.3083C81.5098 69.2635 81.9192 69.2227 82.322 69.1558C82.5684 69.115 82.809 69.054 83.0532 69.0049C83.4083 68.9336 83.7653 68.8689 84.1153 68.7803C84.375 68.7147 84.6279 68.629 84.8846 68.5538C85.2116 68.4581 85.541 68.3694 85.8628 68.2585C86.1254 68.168 86.3804 68.0583 86.6393 67.9579C86.9467 67.8386 87.2567 67.7259 87.5586 67.5925C87.8191 67.4775 88.0715 67.3439 88.3278 67.2185C88.6185 67.0762 88.9117 66.9399 89.1967 66.7844C89.4496 66.6462 89.6941 66.4907 89.9422 66.3422C90.2207 66.1755 90.5015 66.0142 90.7737 65.8346C91.0143 65.6758 91.2461 65.5007 91.4815 65.3319C91.7023 65.1736 91.9294 65.0275 92.1455 64.8604H102.48V102.5ZM104.81 61.2402C104.81 62.1338 104.079 62.8604 103.18 62.8604H94.4185C94.6161 62.6611 94.8004 62.4504 94.9901 62.2442C95.0947 62.1304 95.2032 62.0203 95.3054 61.9044C95.6893 61.4689 96.0579 61.0212 96.4058 60.5581C96.4626 60.4825 96.5132 60.403 96.569 60.3267C96.8564 59.9338 97.1309 59.5325 97.3917 59.122C97.4897 58.9678 97.5827 58.8112 97.6769 58.6546C97.8916 58.2975 98.0958 57.9348 98.2901 57.5661C98.373 57.4089 98.4576 57.2531 98.5367 57.0938C98.7728 56.6186 98.994 56.136 99.1956 55.6444C99.2141 55.5993 99.2362 55.5559 99.2544 55.5107C99.4714 54.9713 99.6624 54.4211 99.8364 53.8646C99.8851 53.709 99.9261 53.5512 99.9714 53.3944C100.043 53.1463 100.122 52.9008 100.185 52.6499H103.18C104.079 52.6499 104.81 53.3813 104.81 54.2803V61.2402Z" fill="#FFDC73"/>
<path d="M73.618 59.0982C73.7953 59.3242 74.0614 59.4629 74.348 59.479C74.367 59.48 74.3856 59.4805 74.4042 59.4805C74.6712 59.4805 74.9281 59.3735 75.1166 59.1821L92.5199 41.5195C92.9076 41.1265 92.9027 40.4932 92.5096 40.106L87.6014 35.2676C87.412 35.0811 87.1605 34.9356 86.892 34.9795C86.6268 34.9815 86.3729 35.0889 86.1869 35.2778L75.0726 46.5601L71.6385 42.1885C71.2967 41.7534 70.6683 41.6792 70.2347 42.0195L64.8138 46.2764C64.6053 46.4404 64.4701 46.6802 64.4388 46.9439C64.4071 47.207 64.4813 47.4722 64.6454 47.6807L73.618 59.0982ZM70.6835 44.21L74.202 48.6885C74.3793 48.9146 74.6454 49.0532 74.932 49.0693C75.223 49.083 75.4984 48.9771 75.7005 48.7725L86.9095 37.394L90.3934 40.8281L74.4886 56.9697L66.8358 47.2315L70.6835 44.21Z" fill="#FFDC73"/>
</svg>
