<svg width="133" height="133" viewBox="0 0 133 133" fill="none" xmlns="http://www.w3.org/2000/svg">
<circle cx="66.5" cy="66.5" r="65.5" fill="#292929" stroke="#FFDC73" stroke-width="2"/>
<path d="M58.5489 65.5578C58.7415 65.6974 58.9713 65.7765 59.209 65.7852C59.4467 65.794 59.6816 65.7319 59.8839 65.6068L66.7999 61.3248L73.7169 65.6088C73.919 65.7321 74.1531 65.7929 74.3897 65.7835C74.6262 65.7741 74.8547 65.695 75.0464 65.556C75.2381 65.417 75.3844 65.2244 75.4668 65.0025C75.5493 64.7806 75.5643 64.5392 75.5099 64.3088L73.5739 56.4088L79.7849 51.1548C79.9655 51.0007 80.0962 50.7965 80.1607 50.568C80.2252 50.3396 80.2205 50.0972 80.1471 49.8714C80.0738 49.6456 79.9352 49.4467 79.7488 49.2997C79.5624 49.1528 79.3366 49.0644 79.0999 49.0458L70.9859 48.4458L67.9089 40.9148C67.8182 40.6953 67.6644 40.5077 67.467 40.3757C67.2696 40.2437 67.0374 40.1732 66.7999 40.1732C66.5624 40.1732 66.3303 40.2437 66.1329 40.3757C65.9355 40.5077 65.7816 40.6953 65.6909 40.9148L62.6139 48.4458L54.4999 49.0458C54.2633 49.0644 54.0375 49.1528 53.8511 49.2997C53.6647 49.4467 53.526 49.6456 53.4527 49.8714C53.3794 50.0972 53.3747 50.3396 53.4391 50.568C53.5036 50.7965 53.6344 51.0007 53.8149 51.1548L60.0259 56.4088L58.0899 64.3088C58.0347 64.539 58.0488 64.7805 58.1304 65.0027C58.2121 65.225 58.3577 65.4181 58.5489 65.5578ZM57.5999 51.2118L63.5299 50.7728C63.7521 50.7563 63.9653 50.6782 64.1457 50.5473C64.326 50.4164 64.4663 50.2379 64.5509 50.0318L66.7999 44.5248L69.0499 50.0248C69.1345 50.2308 69.2746 50.4092 69.4548 50.54C69.6349 50.6709 69.8479 50.7491 70.0699 50.7658L75.9999 51.2048L71.4599 55.0448C71.2899 55.1889 71.1634 55.3774 71.0945 55.5894C71.0256 55.8013 71.0171 56.0283 71.0699 56.2448L72.4859 62.0248L67.4309 58.8938C67.2413 58.7766 67.0228 58.7145 66.7999 58.7145C66.577 58.7145 66.3585 58.7766 66.1689 58.8938L61.1139 62.0248L62.5299 56.2488C62.5828 56.0323 62.5743 55.8053 62.5054 55.5934C62.4365 55.3815 62.3099 55.1929 62.1399 55.0488L57.5999 51.2118ZM93.0699 52.9748C93.0629 59.0555 90.95 64.9461 87.0906 69.6451C83.2312 74.3441 77.8634 77.5613 71.8999 78.7498C71.8232 78.7648 71.7451 78.7725 71.6669 78.7728C71.3726 78.7674 71.0905 78.6539 70.8744 78.454C70.6582 78.2541 70.5231 77.9818 70.4947 77.6888C70.4663 77.3957 70.5466 77.1025 70.7203 76.8648C70.8941 76.6272 71.1491 76.4617 71.4369 76.3998C77.2509 75.2487 82.4289 71.9764 85.9641 67.2194C89.4992 62.4623 91.1388 56.5605 90.564 50.6617C89.9891 44.7628 87.241 39.2886 82.8539 35.3035C78.4668 31.3185 72.7545 29.1075 66.8277 29.1005C60.9009 29.0935 55.1833 31.291 50.7869 35.2657C46.3904 39.2404 43.6294 44.7081 43.0406 50.6056C42.4519 56.5031 44.0776 62.4088 47.6015 67.1742C51.1254 71.9395 56.2957 75.224 62.1069 76.3888C62.4021 76.4671 62.6563 76.6549 62.8178 76.9141C62.9793 77.1732 63.0359 77.4842 62.9761 77.7836C62.9163 78.0831 62.7446 78.3485 62.496 78.5258C62.2474 78.703 61.9405 78.7789 61.6379 78.7378C56.7595 77.7608 52.2587 75.4187 48.6592 71.984C45.0597 68.5493 42.5095 64.1631 41.3052 59.3357C40.1009 54.5083 40.2921 49.4382 41.8565 44.7153C43.4209 39.9923 46.2942 35.8106 50.1421 32.6567C53.99 29.5027 58.6544 27.5062 63.5926 26.8994C68.5308 26.2926 73.5397 27.1005 78.0368 29.2289C82.5338 31.3574 86.334 34.7191 88.9953 38.9228C91.6567 43.1265 93.0696 47.9995 93.0699 52.9748ZM68.6239 78.0108C68.6309 78.3282 68.5118 78.6355 68.2927 78.8653C68.0736 79.0951 67.7723 79.2287 67.4549 79.2368C67.2369 79.2415 67.0186 79.2441 66.7999 79.2448C66.6362 79.2554 66.472 79.2323 66.3175 79.1769C66.163 79.1215 66.0215 79.035 65.9018 78.9228C65.7821 78.8105 65.6866 78.6749 65.6214 78.5243C65.5562 78.3738 65.5225 78.2114 65.5225 78.0473C65.5225 77.8832 65.5562 77.7208 65.6214 77.5702C65.6866 77.4197 65.7821 77.2841 65.9018 77.1718C66.0215 77.0596 66.163 76.9731 66.3175 76.9177C66.472 76.8623 66.6362 76.8392 66.7999 76.8498C66.9999 76.8498 67.1999 76.8471 67.3999 76.8418C67.717 76.8353 68.0238 76.9547 68.2531 77.1737C68.4825 77.3928 68.6158 77.6937 68.6239 78.0108ZM100.537 103.716L90.5649 74.3048C94.6915 69.7125 97.3991 64.0229 98.3603 57.9242C99.3216 51.8256 98.4952 45.579 95.9812 39.9401C93.4671 34.3011 89.3732 29.5114 84.1944 26.1501C79.0156 22.7888 72.9739 21 66.7999 21C60.626 21 54.5842 22.7888 49.4055 26.1501C44.2267 29.5114 40.1327 34.3011 37.6187 39.9401C35.1047 45.579 34.2783 51.8256 35.2395 57.9242C36.2007 64.0229 38.9084 69.7125 43.0349 74.3048L33.0629 103.716C32.9615 104.017 32.9834 104.345 33.1237 104.63C33.2641 104.915 33.5116 105.132 33.8119 105.235L33.8919 105.262C34.071 105.322 34.2618 105.339 34.4487 105.312C34.6357 105.285 34.8136 105.214 34.9679 105.105L45.8929 97.3758L49.8629 110.156C49.919 110.337 50.0174 110.502 50.1499 110.637C50.2824 110.773 50.4452 110.875 50.6249 110.935L50.7039 110.962C51.0046 111.063 51.3329 111.04 51.6171 110.9C51.9014 110.759 52.1185 110.512 52.2209 110.212L60.9759 84.3908C64.8259 85.1028 68.7739 85.1028 72.6239 84.3908L81.3789 110.212C81.4814 110.512 81.6985 110.759 81.9827 110.9C82.267 111.04 82.5953 111.063 82.8959 110.962L82.9749 110.935C83.1546 110.875 83.3175 110.773 83.45 110.637C83.5825 110.502 83.6808 110.337 83.7369 110.156L87.7069 97.3758L98.6319 105.105C98.7863 105.214 98.9641 105.285 99.1511 105.312C99.3381 105.339 99.5289 105.322 99.7079 105.262L99.7879 105.235C100.088 105.132 100.336 104.915 100.476 104.63C100.616 104.345 100.638 104.017 100.537 103.716ZM51.0999 106.06L47.6919 95.0898C47.6354 94.9095 47.5371 94.7452 47.405 94.6101C47.273 94.475 47.1109 94.373 46.932 94.3123C46.753 94.2517 46.5623 94.2342 46.3753 94.2612C46.1883 94.2882 46.0104 94.359 45.8559 94.4678L36.4789 101.102L44.9129 76.2248C48.7771 79.8713 53.4902 82.4959 58.6249 83.8608L51.0999 106.06ZM37.2459 52.9748C37.2449 47.1291 38.9775 41.4144 42.2245 36.5535C45.4715 31.6925 50.087 27.9036 55.4875 25.6659C60.8879 23.4282 66.8307 22.8422 72.5641 23.9821C78.2976 25.1221 83.5642 27.9366 87.6981 32.0698C91.8319 36.2031 94.6471 41.4694 95.7878 47.2027C96.9285 52.936 96.3433 58.8788 94.1064 64.2795C91.8694 69.6803 88.0811 74.2964 83.2206 77.544C78.3601 80.7917 72.6456 82.525 66.7999 82.5248C58.9652 82.5158 51.4538 79.3997 45.9134 73.8601C40.3731 68.3205 37.256 60.8095 37.2459 52.9748ZM87.7459 94.4678C87.5915 94.3592 87.4136 94.2886 87.2268 94.2617C87.0399 94.2348 86.8493 94.2524 86.6705 94.313C86.4917 94.3736 86.3298 94.4755 86.1978 94.6105C86.0658 94.7455 85.9675 94.9097 85.9109 95.0898L82.4999 106.06L74.9739 83.8598C80.109 82.4953 84.8223 79.8711 88.6869 76.2248L97.1219 101.1L87.7459 94.4678Z" fill="#FFDC73"/>
</svg>
